<?xml version="1.0" encoding="UTF-8" standalone="no"?>
<svg width="19px" height="19px" viewBox="0 0 19 19" version="1.1" xmlns="http://www.w3.org/2000/svg" xmlns:xlink="http://www.w3.org/1999/xlink">
    <!-- Generator: Sketch 49.3 (51167) - http://www.bohemiancoding.com/sketch -->
    <title>Artboard</title>
    <desc>Created with Sketch.</desc>
    <defs></defs>
    <g id="Artboard" stroke="none" stroke-width="1" fill="none" fill-rule="evenodd">
        <g id="心理测试" transform="translate(0.000000, 2.000000)" fill="#FA8D01" fill-rule="nonzero">
            <path d="M13.7151855,8.74776815 L12.476083,4 L9.51606937,13.1337618 C9.44621756,13.3498672 9.25756138,13.48934 9.03527756,13.48934 C8.87042583,13.48934 8.66074329,13.4038422 8.56594311,13.1637541 L6.31234612,7.44398753 L5.69611769,8.83138092 C5.61391879,9.01616887 5.43283429,9.13565301 5.23480885,9.13565301 L2,9.13565301 L9.38874914,15.9526132 C9.42560882,15.9849572 9.46117932,16 9.49862003,16 C9.53602443,16 9.57150414,15.9849572 9.60707464,15.9538637 L17,9.13363734 L14.2038576,9.13363734 C13.9761629,9.13365601 13.7751414,8.97492239 13.7151855,8.74776815 Z" id="Shape"></path>
            <path d="M17.4378914,1.55231057 C16.4303523,0.551305475 15.0907407,0 13.6658523,0 C12.2409452,0 10.9012965,0.551323945 9.8938317,1.55231057 L9.7404002,1.70474706 C9.67678801,1.76828752 9.59024101,1.80391484 9.50003718,1.80369316 C9.40989751,1.80392153 9.32341732,1.76828865 9.25989726,1.70474706 L9.10633562,1.55231057 C8.09857339,0.551305475 6.75896184,0 5.33431507,0 C3.90950098,0 2.57001957,0.551323945 1.56261057,1.55231057 C0.55490411,2.55309403 0,3.88390717 0,5.29957349 C0,6.53158829 0.41147456,7.68526998 1.18971233,8.63594315 L1.21360176,8.66494173 L4.79948924,8.66494173 L5.79150489,6.50399346 C5.8767818,6.31801467 6.05750489,6.20253753 6.26321429,6.20253753 C6.43265264,6.20253753 6.64830822,6.2872614 6.745,6.52504975 L8.97658904,12 L12.1117935,2.66197723 C12.1996546,2.40220906 12.4233973,2.30952443 12.6035812,2.30952443 C12.787409,2.30952443 13.0293151,2.40968959 13.105817,2.69184392 L14.7181213,8.66492326 L17.7867701,8.66492326 L17.8104922,8.63603551 C18.5887857,7.68514069 19,6.53145899 19,5.29957349 C19,3.88414729 18.4452446,2.55331567 17.4378914,1.55231057 Z" id="Shape"></path>
        </g>
    </g>
</svg>