<?xml version="1.0" encoding="UTF-8" standalone="no"?>
<svg width="72px" height="13px" viewBox="0 0 72 13" version="1.1" xmlns="http://www.w3.org/2000/svg" xmlns:xlink="http://www.w3.org/1999/xlink">
    <!-- Generator: Sketch 49.3 (51167) - http://www.bohemiancoding.com/sketch -->
    <title>花纹</title>
    <desc>Created with Sketch.</desc>
    <defs>
        <polygon id="path-1" points="0.0709241172 0.00409230769 6.329593 0.00409230769 6.329593 5.57607028 0.0709241172 5.57607028"></polygon>
        <polygon id="path-3" points="0.0472207163 0.0280004849 6.37782832 0.0280004849 6.37782832 5.6 0.0472207163 5.6"></polygon>
        <polygon id="path-5" points="0 0.0567950043 71.9950751 0.0567950043 71.9950751 6.34352941 0 6.34352941"></polygon>
    </defs>
    <g id="花纹" stroke="none" stroke-width="1" fill="none" fill-rule="evenodd">
        <g id="Page-1">
            <g id="Group-3" transform="translate(64.000000, 0.000000)">
                <mask id="mask-2" fill="white">
                    <use xlink:href="#path-1"></use>
                </mask>
                <g id="Clip-2"></g>
                <path d="M0.145454545,5.40255692 C0.145454545,5.40255692 2.78785455,6.38377744 5.3576,3.67948 C5.3576,3.67948 7.12727273,1.81281333 5.89090909,0.592300513 C5.89090909,0.592300513 5.3576,-0.101740513 4.36363636,0.0179415385 C4.36363636,0.0179415385 1.8424,0.257233846 2.49694545,2.05210564 C2.49694545,2.05210564 3.05454545,3.60768513 2.13330909,4.27774667 C2.13330909,4.27774667 1.13941818,4.94788 0.509090909,4.97178769 C0.509090909,4.97178769 -0.145454545,4.94788 0.145454545,5.40255692" id="Fill-1" fill="#FF9700" mask="url(#mask-2)"></path>
            </g>
            <g id="Group-6" transform="translate(64.000000, 7.200000)">
                <mask id="mask-4" fill="white">
                    <use xlink:href="#path-3"></use>
                </mask>
                <g id="Clip-5"></g>
                <path d="M0.122607816,0.201513846 C-0.171645057,0.656190769 0.490423908,0.632283077 0.490423908,0.632283077 C1.12799632,0.656190769 2.13331126,1.3263241 2.13331126,1.3263241 C3.06513655,1.99638564 2.50112736,3.55196513 2.50112736,3.55196513 C1.83905839,5.34683692 4.38927448,5.58612923 4.38927448,5.58612923 C5.39466299,5.70581128 5.93410207,5.01177026 5.93410207,5.01177026 C7.18467678,3.79125744 5.39466299,1.92459077 5.39466299,1.92459077 C2.79538023,-0.779706667 0.122607816,0.201513846 0.122607816,0.201513846" id="Fill-4" fill="#FF9700" mask="url(#mask-4)"></path>
            </g>
            <g id="Group-9" transform="translate(0.000000, 3.200000)">
                <mask id="mask-6" fill="white">
                    <use xlink:href="#path-5"></use>
                </mask>
                <g id="Clip-8"></g>
                <path d="M69.8843931,1.79852934 C69.8843931,1.79852934 67.7717688,2.69822088 65.4104046,2.79077273 L65.4104046,2.76886304 L62.4910751,2.76886304 C62.6043468,2.25571154 62.9194682,1.65717865 63.7456647,1.4129188 C63.7456647,1.4129188 63.9074913,1.30230807 64.2774798,1.4793118 C64.2774798,1.4793118 64.6704971,1.76705906 64.7398613,1.43509406 C64.7398613,1.43509406 64.300578,-0.0255519291 62.3583815,0.571985068 C62.3583815,0.571985068 60.9083931,1.06282852 60.7940809,2.76886304 L60.4721618,2.76886304 C60.3027746,2.13892625 59.7052717,1.67337854 58.9942197,1.67337854 C58.2831676,1.67337854 57.6856647,2.13892625 57.5162775,2.76886304 L53.6302197,2.76886304 C53.4677688,2.26885735 52.9804855,1.90575404 52.4046243,1.90575404 C51.828763,1.90575404 51.3414798,2.26885735 51.1790289,2.76886304 L46.3236763,2.76886304 C46.1526243,2.10194535 45.5241156,1.60698554 44.7745665,1.60698554 C44.0250173,1.60698554 43.3965087,2.10194535 43.2254566,2.76886304 L0,2.76886304 L0,3.49918603 L43.2254566,3.49918603 C43.3965087,4.16617011 44.0250173,4.66106353 44.7745665,4.66106353 C45.5241156,4.66106353 46.1526243,4.16617011 46.3236763,3.49918603 L51.1790289,3.49918603 C51.3414798,3.99925811 51.828763,4.36229503 52.4046243,4.36229503 C52.9804855,4.36229503 53.4677688,3.99925811 53.6302197,3.49918603 L57.5162775,3.49918603 C57.6856647,4.12918921 58.2831676,4.59467053 58.9942197,4.59467053 C59.7052717,4.59467053 60.3027746,4.12918921 60.4721618,3.49918603 L60.8044162,3.49918603 C60.8911214,4.34948118 61.3181272,5.95566063 63.3063815,5.97192691 C63.3063815,5.97192691 63.9768555,5.90553391 64.3930405,5.48506705 C64.3930405,5.48506705 64.6704971,5.17521092 64.0462197,5.21949505 C64.0462197,5.21949505 62.9363931,5.39649879 62.4508439,3.62606306 C62.4508439,3.62606306 62.4435607,3.57899042 62.4380116,3.49918603 L64.8345434,3.49918603 L64.8381503,3.52474734 C64.8381503,3.52474734 65.7398844,3.55794384 66.5028902,3.65753334 C66.5028902,3.65753334 68.5317919,3.88990884 69.7109827,4.42105283 C69.7109827,4.42105283 71.3410405,5.35055483 71.8612717,4.05589134 C71.8612717,4.05589134 72.3294798,2.51225409 71.5144509,1.76533285 C71.5144509,1.76533285 70.9768786,1.20099235 69.8843931,1.79852934 Z" id="Fill-7" fill="#FF9700" mask="url(#mask-6)"></path>
            </g>
        </g>
    </g>
</svg>